<?xml version="1.0" encoding="UTF-8"?>
<svg xmlns="http://www.w3.org/2000/svg" xmlns:xlink="http://www.w3.org/1999/xlink" width="45pt" height="44.999999pt" viewBox="0 0 45 44.999999" version="1.2">
<defs>
<clipPath id="clip1">
  <path d="M 2.277344 0 L 42.777344 0 L 42.777344 45 L 2.277344 45 Z M 2.277344 0 "/>
</clipPath>
</defs>
<g id="surface1">
<path style=" stroke:none;fill-rule:nonzero;fill:rgb(100%,100%,100%);fill-opacity:1;" d="M 22.527344 13.582031 C 21.9375 13.582031 21.355469 13.640625 20.773438 13.753906 C 20.195312 13.871094 19.632812 14.039062 19.089844 14.265625 C 18.542969 14.492188 18.027344 14.765625 17.535156 15.09375 C 17.042969 15.421875 16.589844 15.792969 16.171875 16.210938 C 15.757812 16.628906 15.382812 17.082031 15.054688 17.570312 C 14.726562 18.0625 14.453125 18.578125 14.226562 19.121094 C 14 19.667969 13.828125 20.226562 13.714844 20.804688 C 13.597656 21.382812 13.542969 21.96875 13.542969 22.554688 C 13.542969 23.144531 13.597656 23.730469 13.714844 24.308594 C 13.828125 24.882812 14 25.445312 14.226562 25.988281 C 14.453125 26.535156 14.726562 27.050781 15.054688 27.542969 C 15.382812 28.03125 15.757812 28.484375 16.171875 28.902344 C 16.589844 29.316406 17.042969 29.691406 17.535156 30.015625 C 18.027344 30.34375 18.542969 30.621094 19.089844 30.847656 C 19.632812 31.070312 20.195312 31.242188 20.773438 31.355469 C 21.355469 31.472656 21.9375 31.53125 22.527344 31.53125 C 23.117188 31.53125 23.703125 31.472656 24.28125 31.355469 C 24.859375 31.242188 25.421875 31.070312 25.96875 30.847656 C 26.511719 30.621094 27.03125 30.34375 27.519531 30.015625 C 28.011719 29.691406 28.464844 29.316406 28.882812 28.902344 C 29.300781 28.484375 29.671875 28.03125 30 27.542969 C 30.328125 27.050781 30.605469 26.535156 30.832031 25.988281 C 31.054688 25.445312 31.226562 24.882812 31.34375 24.308594 C 31.457031 23.730469 31.515625 23.144531 31.515625 22.554688 C 31.515625 21.96875 31.457031 21.382812 31.339844 20.804688 C 31.226562 20.230469 31.054688 19.667969 30.828125 19.125 C 30.601562 18.578125 30.324219 18.0625 29.996094 17.574219 C 29.667969 17.082031 29.296875 16.628906 28.878906 16.214844 C 28.460938 15.796875 28.007812 15.425781 27.519531 15.097656 C 27.027344 14.769531 26.511719 14.492188 25.964844 14.269531 C 25.421875 14.042969 24.859375 13.871094 24.28125 13.757812 C 23.703125 13.640625 23.117188 13.582031 22.527344 13.582031 Z M 26.695312 21.109375 L 22.203125 25.59375 C 22.09375 25.699219 21.972656 25.78125 21.835938 25.835938 C 21.699219 25.894531 21.554688 25.921875 21.40625 25.921875 C 21.253906 25.921875 21.113281 25.894531 20.972656 25.835938 C 20.835938 25.78125 20.714844 25.699219 20.609375 25.59375 L 18.363281 23.351562 C 18.257812 23.246094 18.175781 23.125 18.117188 22.988281 C 18.058594 22.847656 18.03125 22.707031 18.03125 22.554688 C 18.03125 22.40625 18.058594 22.261719 18.117188 22.125 C 18.175781 21.988281 18.253906 21.867188 18.359375 21.761719 C 18.464844 21.65625 18.589844 21.574219 18.726562 21.515625 C 18.863281 21.460938 19.007812 21.429688 19.15625 21.429688 C 19.308594 21.429688 19.453125 21.460938 19.589844 21.515625 C 19.726562 21.574219 19.847656 21.65625 19.953125 21.761719 L 21.40625 23.207031 L 25.101562 19.515625 C 25.207031 19.410156 25.328125 19.332031 25.46875 19.273438 C 25.605469 19.214844 25.75 19.1875 25.898438 19.1875 C 26.046875 19.1875 26.191406 19.214844 26.328125 19.273438 C 26.46875 19.328125 26.589844 19.410156 26.695312 19.515625 C 26.800781 19.621094 26.882812 19.742188 26.941406 19.882812 C 26.996094 20.019531 27.023438 20.164062 27.023438 20.3125 C 27.023438 20.460938 26.996094 20.605469 26.9375 20.742188 C 26.882812 20.882812 26.800781 21.003906 26.695312 21.109375 Z M 26.695312 21.109375 "/>
<g clip-path="url(#clip1)" clip-rule="nonzero">
<path style=" stroke:none;fill-rule:nonzero;fill:rgb(100%,100%,100%);fill-opacity:1;" d="M 41.625 6.851562 C 35.089844 6.851562 26.492188 4.648438 23.425781 0.570312 C 22.996094 0 22.058594 0 21.628906 0.570312 C 18.566406 4.648438 9.96875 6.851562 3.433594 6.851562 C 3.28125 6.851562 3.140625 6.882812 3.003906 6.9375 C 2.863281 6.996094 2.742188 7.074219 2.636719 7.179688 C 2.53125 7.285156 2.449219 7.40625 2.394531 7.542969 C 2.335938 7.683594 2.308594 7.824219 2.308594 7.972656 L 2.308594 22.554688 C 2.308594 34.882812 13.03125 42.328125 22.222656 44.949219 C 22.425781 45.003906 22.628906 45.003906 22.835938 44.949219 C 32.023438 42.328125 42.746094 34.882812 42.746094 22.554688 L 42.746094 7.972656 C 42.746094 7.824219 42.71875 7.683594 42.664062 7.542969 C 42.605469 7.40625 42.523438 7.285156 42.417969 7.179688 C 42.3125 7.074219 42.191406 6.996094 42.054688 6.9375 C 41.917969 6.882812 41.773438 6.851562 41.625 6.851562 Z M 22.527344 33.773438 C 21.789062 33.773438 21.058594 33.699219 20.335938 33.558594 C 19.613281 33.414062 18.910156 33.199219 18.230469 32.917969 C 17.546875 32.636719 16.902344 32.292969 16.289062 31.882812 C 15.675781 31.472656 15.105469 31.007812 14.585938 30.488281 C 14.0625 29.96875 13.597656 29.398438 13.1875 28.789062 C 12.777344 28.175781 12.433594 27.527344 12.148438 26.847656 C 11.867188 26.167969 11.65625 25.464844 11.511719 24.746094 C 11.367188 24.023438 11.296875 23.292969 11.296875 22.554688 C 11.296875 21.820312 11.367188 21.089844 11.511719 20.367188 C 11.65625 19.644531 11.867188 18.945312 12.148438 18.261719 C 12.433594 17.582031 12.777344 16.9375 13.1875 16.324219 C 13.597656 15.710938 14.0625 15.144531 14.585938 14.625 C 15.105469 14.105469 15.675781 13.640625 16.289062 13.230469 C 16.902344 12.820312 17.546875 12.476562 18.230469 12.191406 C 18.910156 11.910156 19.613281 11.699219 20.335938 11.554688 C 21.058594 11.410156 21.789062 11.339844 22.527344 11.339844 C 23.265625 11.339844 23.996094 11.410156 24.71875 11.554688 C 25.441406 11.699219 26.144531 11.910156 26.828125 12.191406 C 27.507812 12.476562 28.15625 12.820312 28.769531 13.230469 C 29.382812 13.640625 29.949219 14.105469 30.472656 14.625 C 30.992188 15.144531 31.457031 15.710938 31.867188 16.324219 C 32.277344 16.9375 32.625 17.582031 32.90625 18.261719 C 33.1875 18.945312 33.402344 19.644531 33.546875 20.367188 C 33.6875 21.089844 33.761719 21.820312 33.761719 22.554688 C 33.761719 23.292969 33.6875 24.023438 33.542969 24.742188 C 33.398438 25.464844 33.1875 26.167969 32.902344 26.847656 C 32.621094 27.527344 32.273438 28.171875 31.863281 28.785156 C 31.457031 29.398438 30.988281 29.964844 30.46875 30.484375 C 29.945312 31.003906 29.378906 31.46875 28.765625 31.878906 C 28.152344 32.289062 27.507812 32.632812 26.824219 32.917969 C 26.144531 33.199219 25.441406 33.410156 24.71875 33.554688 C 23.996094 33.699219 23.265625 33.773438 22.527344 33.773438 Z M 22.527344 33.773438 "/>
</g>
</g>
</svg>
