<?xml version="1.0" encoding="UTF-8"?>
<svg xmlns="http://www.w3.org/2000/svg" xmlns:xlink="http://www.w3.org/1999/xlink" width="45pt" height="44.999999pt" viewBox="0 0 45 44.999999" version="1.2">
<g id="surface1">
<path style=" stroke:none;fill-rule:nonzero;fill:rgb(100%,100%,100%);fill-opacity:1;" d="M 15.125 26.378906 C 14.949219 26.199219 14.742188 26.0625 14.511719 25.96875 C 14.28125 25.871094 14.039062 25.824219 13.789062 25.824219 C 13.535156 25.824219 13.292969 25.871094 13.0625 25.96875 C 12.832031 26.0625 12.625 26.199219 12.449219 26.378906 L 6.613281 32.210938 C 6.578125 31.941406 6.496094 31.683594 6.367188 31.441406 C 6.234375 31.203125 6.066406 30.992188 5.859375 30.8125 C 5.652344 30.632812 5.417969 30.5 5.160156 30.40625 C 4.90625 30.3125 4.640625 30.265625 4.367188 30.273438 C 4.089844 30.277344 3.828125 30.328125 3.574219 30.429688 C 3.320312 30.53125 3.089844 30.675781 2.890625 30.859375 C 2.6875 31.046875 2.527344 31.261719 2.402344 31.507812 C 2.28125 31.75 2.207031 32.011719 2.179688 32.28125 L 1.257812 36.933594 C 1.25 36.984375 1.246094 37.03125 1.246094 37.082031 C 1.246094 37.550781 1.304688 38.011719 1.429688 38.46875 L -0.00390625 39.90625 L 1.066406 40.976562 L 2.832031 39.210938 C 3.066406 38.976562 3.125 38.703125 3 38.394531 C 2.847656 37.996094 2.765625 37.582031 2.761719 37.15625 L 3.667969 32.542969 C 3.675781 32.511719 3.679688 32.484375 3.683594 32.453125 C 3.695312 32.273438 3.765625 32.125 3.890625 31.996094 C 3.992188 31.894531 4.113281 31.828125 4.253906 31.796875 C 4.460938 31.757812 4.652344 31.796875 4.820312 31.925781 C 4.976562 32.035156 5.066406 32.183594 5.101562 32.367188 L 5 34.101562 C 4.980469 34.449219 5.128906 34.695312 5.445312 34.835938 C 5.761719 34.980469 6.046875 34.929688 6.292969 34.683594 L 13.523438 27.449219 C 13.597656 27.375 13.6875 27.339844 13.792969 27.339844 C 13.894531 27.339844 13.984375 27.375 14.058594 27.449219 C 14.132812 27.523438 14.171875 27.613281 14.171875 27.71875 C 14.171875 27.824219 14.132812 27.910156 14.058594 27.984375 L 8.433594 33.609375 L 9.503906 34.683594 L 11.4375 32.746094 C 11.496094 32.695312 11.558594 32.671875 11.632812 32.675781 C 11.742188 32.683594 11.835938 32.726562 11.914062 32.804688 C 11.984375 32.863281 12.027344 32.9375 12.039062 33.03125 C 12.050781 33.121094 12.027344 33.207031 11.976562 33.28125 L 10.039062 35.21875 L 11.109375 36.289062 L 12.484375 34.914062 C 12.546875 34.855469 12.625 34.824219 12.710938 34.828125 C 12.820312 34.832031 12.910156 34.871094 12.984375 34.949219 C 13.0625 35.023438 13.101562 35.117188 13.105469 35.222656 C 13.109375 35.3125 13.082031 35.386719 13.019531 35.449219 L 11.644531 36.824219 L 12.71875 37.894531 L 13.519531 37.089844 C 13.59375 37.015625 13.683594 36.976562 13.789062 36.976562 C 13.894531 36.976562 13.988281 37.011719 14.0625 37.085938 C 14.136719 37.160156 14.171875 37.253906 14.171875 37.359375 C 14.171875 37.464844 14.132812 37.554688 14.058594 37.628906 L 10.570312 41.113281 C 10.09375 41.589844 9.527344 41.914062 8.875 42.089844 C 8.222656 42.261719 7.570312 42.261719 6.917969 42.089844 C 6.636719 42.011719 6.390625 42.078125 6.183594 42.285156 L 4.539062 43.929688 L 5.613281 45 L 6.960938 43.648438 C 7.816406 43.800781 8.65625 43.746094 9.484375 43.488281 C 10.3125 43.230469 11.03125 42.792969 11.644531 42.179688 L 15.128906 38.695312 C 15.308594 38.519531 15.445312 38.3125 15.539062 38.082031 C 15.636719 37.851562 15.683594 37.609375 15.683594 37.355469 C 15.683594 37.105469 15.636719 36.863281 15.539062 36.632812 C 15.445312 36.402344 15.308594 36.195312 15.128906 36.019531 C 14.96875 35.859375 14.78125 35.730469 14.570312 35.640625 C 14.648438 35.320312 14.640625 35.003906 14.550781 34.691406 C 14.457031 34.375 14.292969 34.105469 14.058594 33.875 C 13.898438 33.71875 13.714844 33.59375 13.507812 33.496094 C 13.578125 33.179688 13.566406 32.863281 13.472656 32.550781 C 13.382812 32.238281 13.21875 31.964844 12.988281 31.734375 C 12.894531 31.644531 12.796875 31.566406 12.691406 31.496094 L 15.128906 29.058594 C 15.308594 28.878906 15.445312 28.675781 15.539062 28.441406 C 15.632812 28.210938 15.683594 27.96875 15.683594 27.71875 C 15.679688 27.464844 15.632812 27.222656 15.535156 26.992188 C 15.441406 26.761719 15.304688 26.554688 15.125 26.378906 Z M 15.125 26.378906 "/>
<path style=" stroke:none;fill-rule:nonzero;fill:rgb(100%,100%,100%);fill-opacity:1;" d="M 42.285156 38.8125 L 43.933594 40.464844 L 45.003906 39.394531 L 43.648438 38.039062 C 43.800781 37.183594 43.746094 36.34375 43.488281 35.515625 C 43.226562 34.691406 42.792969 33.96875 42.179688 33.355469 L 38.695312 29.871094 C 38.519531 29.691406 38.3125 29.554688 38.082031 29.460938 C 37.851562 29.363281 37.609375 29.316406 37.355469 29.316406 C 37.105469 29.316406 36.863281 29.363281 36.632812 29.460938 C 36.402344 29.554688 36.195312 29.691406 36.019531 29.871094 C 35.859375 30.035156 35.730469 30.21875 35.640625 30.429688 C 35.425781 30.378906 35.210938 30.367188 34.996094 30.394531 C 34.78125 30.417969 34.574219 30.480469 34.378906 30.578125 C 34.183594 30.675781 34.011719 30.800781 33.859375 30.957031 C 33.707031 31.113281 33.585938 31.292969 33.496094 31.488281 C 33.179688 31.417969 32.863281 31.429688 32.546875 31.523438 C 32.234375 31.617188 31.964844 31.78125 31.734375 32.011719 C 31.644531 32.101562 31.5625 32.199219 31.492188 32.304688 L 29.054688 29.867188 C 28.875 29.691406 28.671875 29.558594 28.441406 29.460938 C 28.207031 29.367188 27.96875 29.320312 27.71875 29.320312 C 27.464844 29.320312 27.226562 29.371094 26.996094 29.464844 C 26.761719 29.5625 26.558594 29.699219 26.382812 29.875 C 26.207031 30.050781 26.070312 30.257812 25.972656 30.488281 C 25.875 30.71875 25.828125 30.960938 25.828125 31.210938 C 25.828125 31.460938 25.875 31.703125 25.96875 31.933594 C 26.066406 32.164062 26.199219 32.371094 26.375 32.546875 L 32.210938 38.382812 C 31.9375 38.417969 31.683594 38.5 31.441406 38.628906 C 31.199219 38.757812 30.988281 38.929688 30.808594 39.136719 C 30.632812 39.34375 30.496094 39.574219 30.402344 39.832031 C 30.308594 40.089844 30.261719 40.355469 30.269531 40.628906 C 30.273438 40.902344 30.324219 41.167969 30.425781 41.421875 C 30.527344 41.675781 30.671875 41.90625 30.859375 42.105469 C 31.042969 42.308594 31.257812 42.46875 31.503906 42.59375 C 31.75 42.714844 32.007812 42.789062 32.28125 42.816406 L 36.929688 43.734375 C 36.980469 43.742188 37.027344 43.75 37.078125 43.75 C 37.546875 43.75 38.007812 43.6875 38.460938 43.5625 L 39.902344 45 L 40.972656 43.929688 L 39.207031 42.164062 C 38.972656 41.929688 38.699219 41.871094 38.390625 41.996094 C 37.992188 42.148438 37.578125 42.230469 37.152344 42.238281 L 32.539062 41.328125 C 32.507812 41.320312 32.480469 41.316406 32.449219 41.316406 C 32.269531 41.300781 32.121094 41.230469 31.992188 41.105469 C 31.789062 40.902344 31.726562 40.664062 31.8125 40.386719 C 31.894531 40.109375 32.082031 39.945312 32.363281 39.894531 L 34.097656 40 C 34.441406 40.015625 34.6875 39.867188 34.832031 39.558594 C 34.976562 39.238281 34.925781 38.957031 34.683594 38.710938 L 27.449219 31.476562 C 27.378906 31.402344 27.34375 31.3125 27.34375 31.210938 C 27.34375 31.109375 27.382812 31.019531 27.453125 30.945312 C 27.527344 30.875 27.617188 30.835938 27.71875 30.835938 C 27.824219 30.835938 27.910156 30.871094 27.984375 30.941406 L 33.609375 36.566406 L 34.683594 35.496094 L 32.746094 33.5625 C 32.644531 33.386719 32.664062 33.230469 32.808594 33.085938 C 32.949219 32.945312 33.105469 32.925781 33.28125 33.023438 L 33.839844 33.585938 L 35.214844 34.957031 L 36.289062 33.890625 L 34.914062 32.515625 C 34.785156 32.339844 34.800781 32.171875 34.957031 32.019531 C 35.109375 31.867188 35.277344 31.855469 35.449219 31.984375 L 36.019531 32.554688 L 36.824219 33.355469 L 37.894531 32.285156 L 37.089844 31.480469 C 37.015625 31.40625 36.980469 31.320312 36.980469 31.214844 C 36.980469 31.109375 37.015625 31.019531 37.089844 30.945312 C 37.164062 30.871094 37.253906 30.835938 37.359375 30.835938 C 37.464844 30.835938 37.550781 30.871094 37.625 30.945312 L 41.113281 34.429688 C 41.589844 34.910156 41.914062 35.476562 42.089844 36.128906 C 42.261719 36.78125 42.261719 37.433594 42.089844 38.085938 C 42.015625 38.367188 42.078125 38.609375 42.285156 38.8125 Z M 42.285156 38.8125 "/>
<path style=" stroke:none;fill-rule:nonzero;fill:rgb(100%,100%,100%);fill-opacity:1;" d="M 43.933594 4.238281 L 42.085938 6.085938 C 41.851562 6.320312 41.796875 6.589844 41.917969 6.898438 C 42.074219 7.300781 42.152344 7.710938 42.160156 8.140625 L 41.25 12.753906 C 41.242188 12.78125 41.238281 12.8125 41.238281 12.84375 C 41.222656 13.019531 41.152344 13.171875 41.027344 13.296875 C 40.824219 13.503906 40.585938 13.566406 40.308594 13.480469 C 40.03125 13.394531 39.867188 13.210938 39.816406 12.925781 L 39.925781 11.191406 C 39.945312 10.847656 39.796875 10.601562 39.480469 10.460938 C 39.164062 10.316406 38.882812 10.367188 38.636719 10.613281 L 31.40625 17.84375 C 31.332031 17.914062 31.242188 17.949219 31.136719 17.949219 C 31.035156 17.949219 30.945312 17.910156 30.875 17.839844 C 30.800781 17.765625 30.761719 17.675781 30.761719 17.574219 C 30.761719 17.472656 30.796875 17.382812 30.867188 17.308594 L 36.492188 11.683594 L 35.417969 10.613281 L 33.480469 12.546875 C 33.425781 12.597656 33.359375 12.621094 33.285156 12.617188 C 33.175781 12.609375 33.082031 12.566406 33.007812 12.484375 C 32.925781 12.410156 32.882812 12.316406 32.875 12.207031 C 32.871094 12.132812 32.894531 12.066406 32.945312 12.011719 L 34.882812 10.074219 L 33.808594 9.003906 L 32.4375 10.378906 C 32.371094 10.4375 32.296875 10.46875 32.207031 10.464844 C 32.101562 10.460938 32.007812 10.421875 31.933594 10.34375 C 31.859375 10.277344 31.820312 10.195312 31.8125 10.097656 C 31.808594 10 31.835938 9.914062 31.898438 9.839844 L 32.46875 9.273438 L 33.273438 8.46875 L 32.203125 7.398438 L 31.398438 8.203125 C 31.324219 8.273438 31.234375 8.308594 31.132812 8.308594 C 31.027344 8.308594 30.941406 8.269531 30.867188 8.195312 C 30.792969 8.125 30.757812 8.035156 30.753906 7.933594 C 30.753906 7.828125 30.789062 7.738281 30.863281 7.664062 L 34.347656 4.179688 C 34.824219 3.703125 35.390625 3.378906 36.042969 3.203125 C 36.695312 3.027344 37.347656 3.027344 38 3.203125 C 38.28125 3.277344 38.527344 3.210938 38.734375 3.007812 L 40.679688 1.0625 L 39.605469 -0.00390625 L 37.953125 1.644531 C 37.101562 1.492188 36.261719 1.542969 35.433594 1.804688 C 34.605469 2.0625 33.886719 2.5 33.273438 3.113281 L 29.789062 6.597656 C 29.679688 6.703125 29.585938 6.824219 29.503906 6.953125 C 29.425781 7.085938 29.363281 7.222656 29.316406 7.367188 C 29.269531 7.515625 29.242188 7.664062 29.230469 7.816406 C 29.222656 7.972656 29.230469 8.121094 29.257812 8.273438 C 29.285156 8.425781 29.332031 8.570312 29.394531 8.710938 C 29.457031 8.847656 29.539062 8.980469 29.632812 9.097656 C 29.726562 9.21875 29.835938 9.328125 29.957031 9.421875 C 30.078125 9.515625 30.207031 9.59375 30.347656 9.65625 C 30.277344 9.972656 30.285156 10.289062 30.375 10.601562 C 30.46875 10.914062 30.628906 11.1875 30.859375 11.417969 C 31.019531 11.574219 31.203125 11.703125 31.410156 11.796875 C 31.371094 11.949219 31.355469 12.105469 31.359375 12.265625 C 31.390625 12.921875 31.679688 13.433594 32.226562 13.796875 L 29.789062 16.234375 C 29.609375 16.414062 29.472656 16.617188 29.378906 16.851562 C 29.28125 17.082031 29.234375 17.324219 29.234375 17.574219 C 29.234375 17.828125 29.28125 18.066406 29.378906 18.300781 C 29.472656 18.53125 29.609375 18.738281 29.789062 18.914062 C 29.964844 19.09375 30.171875 19.230469 30.402344 19.324219 C 30.636719 19.421875 30.875 19.46875 31.128906 19.46875 C 31.378906 19.46875 31.621094 19.421875 31.851562 19.324219 C 32.085938 19.230469 32.289062 19.09375 32.46875 18.914062 L 38.300781 13.082031 C 38.335938 13.351562 38.417969 13.609375 38.546875 13.851562 C 38.679688 14.09375 38.847656 14.304688 39.054688 14.484375 C 39.261719 14.664062 39.496094 14.800781 39.753906 14.890625 C 40.007812 14.984375 40.277344 15.03125 40.550781 15.027344 C 40.824219 15.023438 41.089844 14.96875 41.34375 14.867188 C 41.597656 14.765625 41.824219 14.621094 42.027344 14.433594 C 42.230469 14.25 42.390625 14.035156 42.511719 13.789062 C 42.636719 13.542969 42.710938 13.28125 42.734375 13.011719 L 43.652344 8.363281 C 43.664062 8.3125 43.667969 8.265625 43.667969 8.214844 C 43.667969 7.746094 43.605469 7.28125 43.484375 6.828125 L 44.996094 5.3125 Z M 43.933594 4.238281 "/>
<path style=" stroke:none;fill-rule:nonzero;fill:rgb(100%,100%,100%);fill-opacity:1;" d="M 2.820312 11.65625 L 6.304688 15.140625 C 6.410156 15.25 6.53125 15.34375 6.660156 15.421875 C 6.792969 15.503906 6.929688 15.566406 7.074219 15.613281 C 7.222656 15.660156 7.371094 15.6875 7.523438 15.695312 C 7.675781 15.707031 7.828125 15.699219 7.980469 15.671875 C 8.128906 15.644531 8.277344 15.597656 8.414062 15.535156 C 8.554688 15.472656 8.683594 15.394531 8.804688 15.296875 C 8.925781 15.203125 9.03125 15.09375 9.128906 14.976562 C 9.222656 14.855469 9.300781 14.722656 9.363281 14.582031 C 9.496094 14.613281 9.632812 14.632812 9.769531 14.632812 C 10.300781 14.632812 10.75 14.445312 11.125 14.070312 C 11.28125 13.910156 11.410156 13.726562 11.503906 13.523438 C 11.632812 13.554688 11.765625 13.570312 11.902344 13.570312 C 12.433594 13.566406 12.890625 13.378906 13.265625 12.996094 C 13.355469 12.90625 13.4375 12.808594 13.507812 12.703125 L 15.945312 15.140625 C 16.121094 15.3125 16.328125 15.445312 16.558594 15.535156 C 16.789062 15.628906 17.027344 15.675781 17.277344 15.671875 C 17.523438 15.667969 17.761719 15.621094 17.992188 15.523438 C 18.222656 15.429688 18.421875 15.292969 18.597656 15.117188 C 18.773438 14.941406 18.910156 14.738281 19.007812 14.511719 C 19.101562 14.28125 19.152344 14.042969 19.152344 13.792969 C 19.15625 13.546875 19.109375 13.304688 19.019531 13.074219 C 18.925781 12.84375 18.792969 12.640625 18.621094 12.460938 L 12.789062 6.628906 C 13.058594 6.59375 13.316406 6.511719 13.558594 6.378906 C 13.800781 6.25 14.007812 6.082031 14.1875 5.875 C 14.367188 5.667969 14.503906 5.433594 14.597656 5.175781 C 14.691406 4.917969 14.734375 4.652344 14.730469 4.378906 C 14.726562 4.105469 14.671875 3.839844 14.570312 3.585938 C 14.46875 3.332031 14.324219 3.105469 14.140625 2.902344 C 13.953125 2.703125 13.738281 2.539062 13.492188 2.417969 C 13.25 2.296875 12.988281 2.222656 12.714844 2.195312 L 8.066406 1.269531 C 8.015625 1.261719 7.96875 1.253906 7.917969 1.253906 C 7.449219 1.253906 6.984375 1.316406 6.53125 1.441406 L 5.085938 -0.00390625 L 4.015625 1.066406 L 5.792969 2.84375 C 6.027344 3.078125 6.300781 3.132812 6.609375 3.011719 C 7.007812 2.855469 7.421875 2.777344 7.847656 2.769531 L 12.460938 3.679688 C 12.488281 3.6875 12.519531 3.691406 12.550781 3.691406 C 12.726562 3.707031 12.878906 3.777344 13.003906 3.902344 C 13.210938 4.101562 13.273438 4.34375 13.1875 4.621094 C 13.101562 4.894531 12.917969 5.058594 12.636719 5.113281 L 10.902344 5.003906 C 10.558594 4.988281 10.3125 5.136719 10.164062 5.449219 C 10.023438 5.765625 10.070312 6.050781 10.316406 6.296875 L 17.550781 13.527344 C 17.621094 13.601562 17.65625 13.691406 17.65625 13.796875 C 17.65625 13.898438 17.617188 13.988281 17.542969 14.058594 C 17.472656 14.132812 17.382812 14.167969 17.28125 14.171875 C 17.175781 14.171875 17.089844 14.136719 17.011719 14.0625 L 11.390625 8.441406 L 10.316406 9.511719 L 12.253906 11.449219 C 12.355469 11.621094 12.335938 11.78125 12.191406 11.921875 C 12.050781 12.0625 11.894531 12.085938 11.71875 11.984375 L 9.78125 10.046875 L 8.710938 11.121094 L 10.085938 12.492188 C 10.15625 12.566406 10.191406 12.65625 10.191406 12.761719 C 10.191406 12.863281 10.152344 12.953125 10.082031 13.023438 C 10.007812 13.097656 9.917969 13.132812 9.816406 13.136719 C 9.714844 13.136719 9.625 13.101562 9.550781 13.027344 L 8.980469 12.460938 L 8.179688 11.65625 L 7.105469 12.726562 L 7.910156 13.53125 C 7.980469 13.605469 8.015625 13.695312 8.015625 13.796875 C 8.011719 13.902344 7.976562 13.988281 7.902344 14.0625 C 7.828125 14.136719 7.742188 14.171875 7.636719 14.171875 C 7.535156 14.171875 7.445312 14.136719 7.371094 14.066406 L 3.886719 10.585938 C 3.410156 10.105469 3.082031 9.539062 2.910156 8.886719 C 2.734375 8.234375 2.734375 7.582031 2.910156 6.929688 C 2.984375 6.648438 2.921875 6.402344 2.714844 6.195312 L 1.0625 4.539062 L -0.0117188 5.613281 L 1.351562 6.976562 C 1.199219 7.828125 1.253906 8.667969 1.511719 9.496094 C 1.773438 10.320312 2.207031 11.042969 2.820312 11.65625 Z M 2.820312 11.65625 "/>
<path style=" stroke:none;fill-rule:nonzero;fill:rgb(100%,100%,100%);fill-opacity:1;" d="M 29.316406 22.5 C 29.316406 22.050781 29.273438 21.609375 29.1875 21.167969 C 29.101562 20.730469 28.96875 20.304688 28.800781 19.890625 C 28.628906 19.476562 28.417969 19.085938 28.167969 18.710938 C 27.921875 18.339844 27.636719 17.996094 27.320312 17.679688 C 27.003906 17.363281 26.660156 17.078125 26.289062 16.832031 C 25.914062 16.582031 25.523438 16.371094 25.109375 16.199219 C 24.695312 16.03125 24.269531 15.898438 23.832031 15.8125 C 23.390625 15.726562 22.949219 15.683594 22.5 15.683594 C 22.050781 15.683594 21.609375 15.726562 21.167969 15.8125 C 20.730469 15.898438 20.304688 16.03125 19.890625 16.199219 C 19.476562 16.371094 19.085938 16.582031 18.710938 16.832031 C 18.339844 17.078125 17.996094 17.363281 17.679688 17.679688 C 17.363281 17.996094 17.078125 18.339844 16.832031 18.710938 C 16.582031 19.085938 16.371094 19.476562 16.199219 19.890625 C 16.03125 20.304688 15.898438 20.730469 15.8125 21.167969 C 15.726562 21.609375 15.683594 22.050781 15.683594 22.5 C 15.683594 22.949219 15.726562 23.390625 15.8125 23.832031 C 15.898438 24.269531 16.03125 24.695312 16.199219 25.109375 C 16.371094 25.523438 16.582031 25.914062 16.832031 26.289062 C 17.078125 26.660156 17.363281 27.003906 17.679688 27.320312 C 17.996094 27.636719 18.339844 27.921875 18.710938 28.167969 C 19.085938 28.417969 19.476562 28.628906 19.890625 28.800781 C 20.304688 28.96875 20.730469 29.101562 21.167969 29.1875 C 21.609375 29.273438 22.050781 29.316406 22.5 29.316406 C 22.949219 29.316406 23.390625 29.273438 23.828125 29.1875 C 24.269531 29.097656 24.695312 28.96875 25.109375 28.796875 C 25.519531 28.625 25.914062 28.414062 26.285156 28.167969 C 26.660156 27.917969 27.003906 27.636719 27.320312 27.320312 C 27.636719 27.003906 27.917969 26.660156 28.167969 26.285156 C 28.414062 25.914062 28.625 25.519531 28.796875 25.109375 C 28.96875 24.695312 29.097656 24.269531 29.1875 23.828125 C 29.273438 23.390625 29.316406 22.949219 29.316406 22.5 Z M 19.46875 24.773438 L 19.46875 26.84375 C 19.164062 26.632812 18.878906 26.386719 18.625 26.113281 C 18.371094 25.839844 18.144531 25.542969 17.953125 25.222656 C 17.757812 24.898438 17.601562 24.5625 17.480469 24.207031 C 17.359375 23.855469 17.277344 23.492188 17.234375 23.117188 C 17.191406 22.746094 17.183594 22.375 17.21875 22 C 17.253906 21.628906 17.328125 21.261719 17.441406 20.90625 C 17.550781 20.546875 17.699219 20.207031 17.886719 19.878906 C 18.070312 19.554688 18.285156 19.25 18.535156 18.972656 C 18.785156 18.691406 19.058594 18.441406 19.363281 18.21875 C 19.664062 17.996094 19.984375 17.808594 20.328125 17.65625 C 20.667969 17.503906 21.023438 17.386719 21.390625 17.308594 C 21.753906 17.230469 22.125 17.191406 22.5 17.191406 C 22.875 17.191406 23.246094 17.230469 23.609375 17.308594 C 23.976562 17.386719 24.332031 17.503906 24.671875 17.65625 C 25.015625 17.808594 25.335938 17.996094 25.636719 18.21875 C 25.941406 18.441406 26.214844 18.691406 26.464844 18.972656 C 26.714844 19.25 26.929688 19.554688 27.113281 19.878906 C 27.300781 20.207031 27.449219 20.546875 27.558594 20.90625 C 27.671875 21.261719 27.746094 21.628906 27.78125 22 C 27.816406 22.375 27.808594 22.746094 27.765625 23.117188 C 27.722656 23.492188 27.640625 23.855469 27.519531 24.207031 C 27.398438 24.5625 27.242188 24.898438 27.046875 25.222656 C 26.855469 25.542969 26.628906 25.839844 26.375 26.113281 C 26.121094 26.386719 25.835938 26.632812 25.53125 26.84375 L 25.53125 24.773438 C 25.527344 24.296875 25.390625 23.863281 25.117188 23.476562 C 24.84375 23.085938 24.484375 22.808594 24.039062 22.648438 C 24.265625 22.4375 24.441406 22.195312 24.566406 21.917969 C 24.695312 21.636719 24.761719 21.34375 24.773438 21.039062 C 24.78125 20.730469 24.730469 20.433594 24.617188 20.148438 C 24.507812 19.863281 24.34375 19.609375 24.128906 19.390625 C 23.914062 19.167969 23.667969 19 23.382812 18.878906 C 23.101562 18.761719 22.808594 18.703125 22.5 18.703125 C 22.191406 18.703125 21.898438 18.761719 21.617188 18.878906 C 21.332031 19 21.085938 19.167969 20.871094 19.390625 C 20.65625 19.609375 20.492188 19.863281 20.382812 20.148438 C 20.269531 20.433594 20.21875 20.730469 20.226562 21.039062 C 20.238281 21.34375 20.304688 21.636719 20.433594 21.917969 C 20.558594 22.195312 20.734375 22.4375 20.960938 22.648438 C 20.515625 22.808594 20.15625 23.085938 19.882812 23.476562 C 19.609375 23.863281 19.472656 24.296875 19.46875 24.773438 Z M 23.257812 20.984375 C 23.257812 21.195312 23.183594 21.371094 23.035156 21.519531 C 22.886719 21.667969 22.710938 21.742188 22.5 21.742188 C 22.289062 21.742188 22.113281 21.667969 21.964844 21.519531 C 21.816406 21.371094 21.742188 21.195312 21.742188 20.984375 C 21.742188 20.777344 21.816406 20.597656 21.964844 20.449219 C 22.113281 20.300781 22.289062 20.226562 22.5 20.226562 C 22.710938 20.226562 22.886719 20.300781 23.035156 20.449219 C 23.183594 20.597656 23.257812 20.777344 23.257812 20.984375 Z M 20.984375 24.773438 C 20.984375 24.5625 21.058594 24.386719 21.207031 24.238281 C 21.355469 24.089844 21.535156 24.015625 21.742188 24.015625 L 23.257812 24.015625 C 23.464844 24.015625 23.644531 24.089844 23.792969 24.238281 C 23.941406 24.386719 24.015625 24.5625 24.015625 24.773438 L 24.015625 27.574219 C 23.003906 27.878906 21.996094 27.878906 20.984375 27.574219 Z M 20.984375 24.773438 "/>
</g>
</svg>
