<?xml version="1.0" encoding="UTF-8"?>
<svg xmlns="http://www.w3.org/2000/svg" xmlns:xlink="http://www.w3.org/1999/xlink" width="45pt" height="44.999999pt" viewBox="0 0 45 44.999999" version="1.2">
<defs>
<clipPath id="clip1">
  <path d="M 0.421875 0 L 44.667969 0 L 44.667969 44.992188 L 0.421875 44.992188 Z M 0.421875 0 "/>
</clipPath>
<clipPath id="clip2">
  <path d="M 25.398438 16.089844 L 44.667969 16.089844 L 44.667969 30.917969 L 25.398438 30.917969 Z M 25.398438 16.089844 "/>
</clipPath>
<clipPath id="clip3">
  <path d="M 40.472656 19 L 44.667969 19 L 44.667969 20.925781 L 40.472656 20.925781 Z M 40.472656 19 "/>
</clipPath>
<clipPath id="clip4">
  <path d="M 37.351562 27.695312 L 44.667969 27.695312 L 44.667969 30.917969 L 37.351562 30.917969 Z M 37.351562 27.695312 "/>
</clipPath>
<clipPath id="clip5">
  <path d="M 0.421875 16 L 23 16 L 23 32 L 0.421875 32 Z M 0.421875 16 "/>
</clipPath>
<clipPath id="clip6">
  <path d="M 0.421875 19 L 7 19 L 7 22 L 0.421875 22 Z M 0.421875 19 "/>
</clipPath>
<clipPath id="clip7">
  <path d="M 0.421875 27 L 11 27 L 11 32 L 0.421875 32 Z M 0.421875 27 "/>
</clipPath>
</defs>
<g id="surface1">
<g clip-path="url(#clip1)" clip-rule="nonzero">
<path style=" stroke:none;fill-rule:nonzero;fill:rgb(100%,100%,100%);fill-opacity:1;" d="M 44.667969 22.488281 L 33.019531 21.269531 L 44.167969 17.496094 L 32.480469 18.90625 L 42.496094 12.734375 L 31.421875 16.71875 L 39.808594 8.476562 L 29.898438 14.8125 L 36.246094 4.921875 L 27.988281 13.289062 L 31.980469 2.238281 L 25.796875 12.234375 L 27.207031 0.574219 L 23.425781 11.699219 L 22.199219 0.015625 L 20.972656 11.699219 L 17.191406 0.574219 L 18.601562 12.234375 L 12.417969 2.238281 L 16.410156 13.289062 L 8.148438 4.921875 L 14.5 14.8125 L 4.589844 8.476562 L 12.976562 16.71875 L 1.902344 12.734375 L 11.917969 18.90625 L 0.421875 17.519531 L 0.421875 17.5625 L 11.378906 21.269531 L 0.421875 22.417969 L 0.421875 22.574219 L 11.378906 23.71875 L 0.421875 27.429688 L 0.421875 27.46875 L 11.917969 26.085938 L 1.902344 32.253906 L 12.976562 28.273438 L 4.589844 36.515625 L 14.5 30.175781 L 8.148438 40.070312 L 16.410156 31.699219 L 12.417969 42.75 L 18.601562 32.753906 L 17.191406 44.414062 L 20.972656 33.292969 L 22.199219 44.972656 L 23.425781 33.292969 L 27.207031 44.414062 L 25.796875 32.753906 L 31.976562 42.75 L 27.988281 31.699219 L 36.246094 40.070312 L 29.898438 30.179688 L 39.808594 36.515625 L 31.421875 28.273438 L 42.496094 32.253906 L 32.480469 26.085938 L 44.167969 27.492188 L 33.019531 23.71875 L 44.667969 22.5 L 44.667969 22.488281 "/>
</g>
<g clip-path="url(#clip2)" clip-rule="nonzero">
<path style=" stroke:none;fill-rule:nonzero;fill:rgb(0%,0%,0%);fill-opacity:1;" d="M 44.667969 20.027344 C 44.136719 19.894531 43.714844 19.796875 43.445312 19.734375 C 42.242188 19.46875 41.035156 19.199219 39.84375 18.886719 C 38.632812 18.574219 38.589844 18.378906 37.40625 17.96875 C 36.21875 17.554688 35.03125 17.128906 33.828125 16.757812 C 32.714844 16.410156 31.566406 16.175781 30.394531 16.179688 C 29.542969 16.183594 28.71875 16.285156 28.042969 16.855469 C 27.449219 17.359375 27.0625 18.054688 26.726562 18.746094 C 26.410156 19.398438 26.070312 20.050781 25.851562 20.746094 C 25.628906 21.449219 25.488281 22.183594 25.445312 22.921875 C 25.382812 23.917969 25.484375 25.070312 26.042969 25.925781 C 26.117188 26.128906 26.246094 26.308594 26.402344 26.464844 C 26.917969 26.96875 27.617188 27.261719 28.277344 27.523438 C 28.621094 27.65625 28.96875 27.777344 29.3125 27.902344 C 29.710938 28.046875 30.097656 28.230469 30.5 28.371094 C 31.5 28.730469 35.445312 28.445312 36.019531 28.453125 C 36.578125 28.457031 37.128906 28.339844 37.691406 28.390625 C 38.210938 28.433594 38.707031 28.585938 39.179688 28.796875 C 39.707031 29.03125 40.207031 29.3125 40.738281 29.535156 C 41.289062 29.765625 42.972656 30.277344 43.535156 30.476562 C 43.914062 30.609375 44.292969 30.738281 44.667969 30.875 L 44.667969 20.027344 "/>
</g>
<path style=" stroke:none;fill-rule:nonzero;fill:rgb(100%,100%,100%);fill-opacity:1;" d="M 30.109375 23.289062 L 25.789062 23.519531 C 25.789062 23.519531 24.746094 23.515625 24.386719 23.847656 C 24.027344 24.183594 23.898438 25.53125 24.316406 25.953125 C 24.734375 26.375 25.554688 26.613281 26.007812 26.671875 C 26.382812 26.722656 28.449219 26.589844 29.140625 26.542969 C 29.28125 26.53125 29.5 27.039062 29.5 27.039062 L 29.734375 26.328125 L 31.121094 26.957031 L 30.351562 25.46875 C 30.351562 25.46875 30.363281 23.914062 30.8125 22.863281 C 30.886719 22.691406 30.972656 22.515625 31.074219 22.34375 C 30.398438 22.640625 30.109375 23.289062 30.109375 23.289062 "/>
<path style=" stroke:none;fill-rule:nonzero;fill:rgb(100%,100%,100%);fill-opacity:1;" d="M 29.078125 21.015625 L 25.605469 20.285156 C 25.605469 20.285156 24.421875 20.058594 23.957031 20.414062 C 23.492188 20.769531 23.207031 22.148438 23.4375 22.800781 C 23.664062 23.449219 25.195312 23.917969 25.195312 23.917969 L 28.890625 24.316406 L 30.074219 23.972656 L 30.59375 21.585938 L 29.078125 21.015625 "/>
<path style=" stroke:none;fill-rule:nonzero;fill:rgb(0%,0%,0%);fill-opacity:1;" d="M 28.367188 21.550781 C 27.800781 21.0625 25.1875 20.441406 24.375 20.894531 C 23.5625 21.347656 23.332031 21.980469 23.6875 22.679688 C 24.042969 23.375 25.039062 23.257812 25.699219 23.378906 C 26.359375 23.5 27.546875 23.523438 28.101562 23.628906 C 28.660156 23.738281 29.011719 23.320312 29.011719 23.320312 L 29.222656 22.289062 C 29.222656 22.289062 28.933594 22.035156 28.367188 21.550781 "/>
<path style=" stroke:none;fill-rule:nonzero;fill:rgb(100%,100%,100%);fill-opacity:1;" d="M 30.421875 14.625 C 30.421875 14.625 27.347656 13.933594 26.589844 13.875 C 25.835938 13.8125 25.023438 14.964844 24.929688 15.597656 C 24.773438 16.664062 26.140625 17.210938 26.140625 17.210938 L 29.671875 18.074219 L 31.132812 17.671875 L 31.769531 15.835938 L 30.421875 14.625 "/>
<path style=" stroke:none;fill-rule:nonzero;fill:rgb(0%,0%,0%);fill-opacity:1;" d="M 29.460938 15.257812 C 29.460938 15.257812 27.128906 14.425781 26.320312 14.394531 C 25.511719 14.359375 25.414062 15.015625 25.363281 15.582031 C 25.316406 16.152344 25.726562 16.847656 26.539062 17.144531 C 27.351562 17.4375 28.878906 17.554688 28.878906 17.554688 L 29.960938 17.042969 L 30.347656 15.980469 L 29.460938 15.257812 "/>
<path style=" stroke:none;fill-rule:nonzero;fill:rgb(100%,100%,100%);fill-opacity:1;" d="M 29.335938 17.808594 L 25.816406 16.726562 C 25.816406 16.726562 25.277344 16.515625 24.597656 16.691406 C 23.917969 16.867188 23.351562 18.46875 23.53125 19 C 23.710938 19.53125 24.238281 20.144531 25.050781 20.390625 C 25.867188 20.636719 28.585938 21.257812 28.585938 21.257812 L 29.796875 21.039062 L 30.714844 18.589844 L 29.335938 17.808594 "/>
<path style=" stroke:none;fill-rule:nonzero;fill:rgb(0%,0%,0%);fill-opacity:1;" d="M 28.371094 18.441406 C 27.953125 17.75 25.996094 17.671875 25.007812 17.507812 C 24.296875 17.390625 23.675781 18.304688 23.921875 19.03125 C 24.167969 19.757812 25.5625 20.109375 25.5625 20.109375 L 27.753906 20.664062 L 28.871094 20.226562 L 29.257812 19.164062 C 29.257812 19.164062 28.789062 19.128906 28.371094 18.441406 "/>
<g clip-path="url(#clip3)" clip-rule="nonzero">
<path style=" stroke:none;fill-rule:nonzero;fill:rgb(100%,100%,100%);fill-opacity:1;" d="M 44.667969 19.914062 L 40.496094 19.007812 L 40.703125 20.027344 L 44.667969 20.898438 L 44.667969 19.914062 "/>
</g>
<g clip-path="url(#clip4)" clip-rule="nonzero">
<path style=" stroke:none;fill-rule:nonzero;fill:rgb(100%,100%,100%);fill-opacity:1;" d="M 44.667969 29.859375 L 38.121094 27.746094 L 37.429688 28.519531 L 44.667969 30.878906 L 44.667969 29.859375 "/>
</g>
<path style=" stroke:none;fill-rule:nonzero;fill:rgb(100%,100%,100%);fill-opacity:1;" d="M 38.664062 27.230469 C 38.664062 27.230469 38.421875 28.378906 36.863281 28.71875 C 36.285156 28.84375 35.347656 28.523438 34.550781 28.554688 C 33.210938 28.613281 31.867188 29.238281 30.992188 28.925781 C 30.214844 28.648438 27.886719 27.546875 26.894531 27.210938 C 25.898438 26.878906 24.921875 26.503906 24.746094 26.230469 C 24.128906 25.28125 28.386719 26.476562 28.386719 26.476562 C 28.386719 26.476562 27.699219 26.816406 28.722656 27.160156 C 29.742188 27.507812 31.035156 28.492188 31.035156 28.492188 C 31.035156 28.492188 34.488281 28.242188 36.222656 28.152344 C 37.957031 28.066406 38.664062 27.230469 38.664062 27.230469 "/>
<path style=" stroke:none;fill-rule:nonzero;fill:rgb(0%,0%,0%);fill-opacity:1;" d="M 30.433594 22.914062 C 30.445312 22.878906 30.773438 22.417969 31.074219 22.34375 C 31.40625 22.261719 31.21875 21.535156 31.351562 21.230469 C 31.496094 20.902344 31.519531 20.527344 31.597656 20.179688 C 31.664062 19.878906 31.691406 19.503906 31.867188 19.242188 C 32.183594 18.773438 32.566406 19.398438 32.699219 19.675781 C 32.859375 20.015625 32.980469 20.375 33.191406 20.6875 C 33.410156 21.007812 33.789062 21.882812 34.117188 22.089844 C 34.609375 22.410156 36.125 23.984375 36.691406 24.144531 C 37.285156 24.3125 39.742188 23.496094 39.976562 22.742188 C 40.148438 22.191406 40.601562 21.792969 40.636719 21.222656 C 40.667969 20.710938 40.730469 20.113281 40.59375 19.617188 C 40.320312 18.644531 39.375 17.992188 38.742188 17.257812 C 38.070312 16.480469 38.121094 15.824219 37.234375 15.28125 C 36.800781 15.019531 35.933594 13.921875 35.433594 13.839844 C 34.835938 13.738281 34.246094 13.90625 33.648438 13.835938 C 32.617188 13.71875 31.480469 13.769531 30.441406 14.007812 C 30.050781 14.097656 29.457031 14.335938 29.132812 14.582031 C 28.835938 14.804688 28.464844 15.320312 28.421875 15.6875 C 28.300781 16.757812 28.382812 18.023438 28.578125 19.070312 C 28.773438 20.105469 28.273438 22.050781 29.078125 22.839844 C 29.113281 22.875 30.421875 22.960938 30.433594 22.914062 "/>
<path style=" stroke:none;fill-rule:nonzero;fill:rgb(100%,100%,100%);fill-opacity:1;" d="M 40.609375 21.402344 C 40.609375 21.402344 41.0625 19.519531 40.570312 18.664062 C 40.320312 18.226562 39.140625 17.289062 38.214844 16.1875 C 37.332031 15.136719 36.738281 13.8125 36.121094 13.542969 C 34.863281 12.996094 30.28125 13.828125 29.757812 13.902344 C 29.238281 13.980469 28.335938 14.964844 28.183594 15.5625 C 28.035156 16.15625 28.363281 22.484375 28.691406 23.042969 C 29.019531 23.605469 30.722656 23.058594 30.722656 23.058594 L 31.648438 21.816406 L 32.109375 19.535156 C 32.109375 19.535156 32.214844 20.535156 32.816406 21.359375 C 33.421875 22.183594 35.671875 23.21875 35.671875 23.21875 C 35.671875 23.21875 34.25 22.351562 33.460938 21.359375 C 32.671875 20.363281 32.898438 19.414062 32.898438 19.414062 L 33.210938 17.839844 C 33.210938 17.839844 32.417969 18.773438 32.296875 18.667969 C 32.175781 18.558594 31.6875 17.480469 31.6875 17.480469 C 31.6875 17.480469 32.011719 18.21875 31.851562 18.953125 C 31.628906 19.976562 31.273438 21.445312 31 21.859375 C 30.570312 22.511719 29.867188 22.945312 29.148438 22.304688 C 28.957031 22.132812 28.886719 21.523438 28.820312 20.917969 C 28.8125 20.828125 29.246094 20.855469 29.507812 20.785156 C 29.632812 20.753906 29.816406 22.167969 29.8125 22.121094 C 29.8125 22.101562 29.796875 20.582031 29.679688 20.570312 C 29.398438 20.535156 28.730469 20.484375 28.726562 20.433594 C 28.632812 18.800781 28.746094 16.648438 28.609375 16.089844 C 28.398438 15.226562 29.121094 15.054688 30.082031 14.375 C 31.039062 13.695312 34.804688 14.074219 35.875 14.609375 C 36.5 14.921875 37.246094 15.75 38.007812 16.539062 C 38.546875 17.097656 39.089844 17.667969 39.523438 18.210938 C 40.574219 19.523438 40.609375 21.402344 40.609375 21.402344 "/>
<path style=" stroke:none;fill-rule:nonzero;fill:rgb(0%,0%,0%);fill-opacity:1;" d="M 28.371094 24.226562 C 27.539062 23.984375 25.605469 24.191406 25.050781 24.417969 C 24.496094 24.644531 24.242188 25.414062 24.566406 25.886719 C 24.894531 26.359375 26.699219 26.390625 26.699219 26.390625 C 26.699219 26.390625 27.667969 26.246094 28.339844 26.242188 C 29.007812 26.238281 29.027344 26.167969 29.320312 25.914062 C 29.613281 25.660156 29.511719 25.191406 29.492188 24.734375 C 29.476562 24.277344 29.195312 24.46875 28.371094 24.226562 "/>
<path style=" stroke:none;fill-rule:nonzero;fill:rgb(100%,100%,100%);fill-opacity:1;" d="M 26.828125 14.226562 L 26.386719 15.042969 L 26.523438 14.125 Z M 26.828125 14.226562 "/>
<path style=" stroke:none;fill-rule:nonzero;fill:rgb(100%,100%,100%);fill-opacity:1;" d="M 28.773438 15.253906 L 30.011719 16.300781 L 28.589844 15.519531 Z M 28.773438 15.253906 "/>
<path style=" stroke:none;fill-rule:nonzero;fill:rgb(100%,100%,100%);fill-opacity:1;" d="M 28.488281 15.898438 L 29.496094 16.722656 L 28.316406 16.171875 Z M 28.488281 15.898438 "/>
<path style=" stroke:none;fill-rule:nonzero;fill:rgb(100%,100%,100%);fill-opacity:1;" d="M 26.269531 14.230469 L 25.691406 15.746094 L 25.957031 14.148438 Z M 26.269531 14.230469 "/>
<path style=" stroke:none;fill-rule:nonzero;fill:rgb(100%,100%,100%);fill-opacity:1;" d="M 25.472656 17.367188 L 25.027344 18.183594 L 25.167969 17.261719 Z M 25.472656 17.367188 "/>
<path style=" stroke:none;fill-rule:nonzero;fill:rgb(100%,100%,100%);fill-opacity:1;" d="M 24.914062 17.371094 L 24.335938 18.882812 L 24.601562 17.285156 Z M 24.914062 17.371094 "/>
<path style=" stroke:none;fill-rule:nonzero;fill:rgb(100%,100%,100%);fill-opacity:1;" d="M 25.125 20.695312 L 24.679688 21.511719 L 24.820312 20.59375 Z M 25.125 20.695312 "/>
<path style=" stroke:none;fill-rule:nonzero;fill:rgb(100%,100%,100%);fill-opacity:1;" d="M 24.566406 20.699219 L 23.988281 22.214844 L 24.253906 20.617188 Z M 24.566406 20.699219 "/>
<path style=" stroke:none;fill-rule:nonzero;fill:rgb(100%,100%,100%);fill-opacity:1;" d="M 25.910156 24.164062 L 25.464844 24.980469 L 25.605469 24.0625 Z M 25.910156 24.164062 "/>
<path style=" stroke:none;fill-rule:nonzero;fill:rgb(100%,100%,100%);fill-opacity:1;" d="M 25.351562 24.167969 L 24.773438 25.683594 L 25.039062 24.085938 Z M 25.351562 24.167969 "/>
<g clip-path="url(#clip5)" clip-rule="nonzero">
<path style=" stroke:none;fill-rule:nonzero;fill:rgb(0%,0%,0%);fill-opacity:1;" d="M 22.011719 22.921875 C 21.96875 22.183594 21.828125 21.449219 21.605469 20.746094 C 21.386719 20.050781 21.046875 19.398438 20.730469 18.746094 C 20.394531 18.054688 20.007812 17.359375 19.410156 16.855469 C 18.738281 16.285156 17.914062 16.183594 17.058594 16.179688 C 15.890625 16.175781 14.738281 16.410156 13.628906 16.757812 C 12.425781 17.128906 11.238281 17.554688 10.046875 17.96875 C 8.863281 18.378906 8.824219 18.574219 7.613281 18.886719 C 6.421875 19.199219 5.214844 19.46875 4.011719 19.734375 C 3.414062 19.867188 2.097656 20.191406 0.421875 20.609375 L 0.421875 31.730469 C 0.503906 31.703125 0.566406 31.683594 0.605469 31.667969 C 1.703125 31.25 2.8125 30.863281 3.921875 30.476562 C 4.484375 30.277344 6.167969 29.765625 6.71875 29.535156 C 7.25 29.3125 7.75 29.03125 8.273438 28.796875 C 8.75 28.585938 9.246094 28.433594 9.765625 28.390625 C 10.324219 28.339844 10.878906 28.457031 11.4375 28.453125 C 12.011719 28.445312 15.953125 28.730469 16.957031 28.371094 C 17.359375 28.230469 17.742188 28.046875 18.144531 27.902344 C 18.488281 27.777344 18.835938 27.65625 19.175781 27.523438 C 19.839844 27.261719 20.535156 26.96875 21.050781 26.464844 C 21.210938 26.308594 21.335938 26.128906 21.414062 25.925781 C 21.972656 25.070312 22.070312 23.917969 22.011719 22.921875 "/>
</g>
<path style=" stroke:none;fill-rule:nonzero;fill:rgb(100%,100%,100%);fill-opacity:1;" d="M 17.347656 23.289062 L 21.664062 23.519531 C 21.664062 23.519531 22.707031 23.515625 23.070312 23.847656 C 23.429688 24.183594 23.558594 25.53125 23.140625 25.953125 C 22.722656 26.375 21.898438 26.613281 21.449219 26.671875 C 21.074219 26.722656 19.007812 26.589844 18.316406 26.542969 C 18.175781 26.53125 17.957031 27.039062 17.957031 27.039062 L 17.722656 26.328125 L 16.335938 26.957031 L 17.101562 25.46875 C 17.101562 25.46875 17.09375 23.914062 16.644531 22.863281 C 16.570312 22.691406 16.484375 22.515625 16.382812 22.34375 C 17.058594 22.640625 17.347656 23.289062 17.347656 23.289062 "/>
<path style=" stroke:none;fill-rule:nonzero;fill:rgb(100%,100%,100%);fill-opacity:1;" d="M 18.378906 21.015625 L 21.851562 20.285156 C 21.851562 20.285156 23.035156 20.058594 23.5 20.414062 C 23.964844 20.769531 24.25 22.148438 24.019531 22.800781 C 23.792969 23.449219 22.261719 23.917969 22.261719 23.917969 L 18.5625 24.316406 L 17.382812 23.972656 L 16.863281 21.585938 L 18.378906 21.015625 "/>
<path style=" stroke:none;fill-rule:nonzero;fill:rgb(0%,0%,0%);fill-opacity:1;" d="M 19.089844 21.550781 C 19.65625 21.0625 22.269531 20.441406 23.082031 20.894531 C 23.894531 21.347656 24.121094 21.980469 23.769531 22.679688 C 23.414062 23.375 22.414062 23.257812 21.757812 23.378906 C 21.097656 23.5 19.910156 23.523438 19.355469 23.628906 C 18.796875 23.738281 18.445312 23.320312 18.445312 23.320312 L 18.230469 22.289062 C 18.230469 22.289062 18.519531 22.035156 19.089844 21.550781 "/>
<path style=" stroke:none;fill-rule:nonzero;fill:rgb(100%,100%,100%);fill-opacity:1;" d="M 17.035156 14.625 C 17.035156 14.625 20.109375 13.933594 20.863281 13.875 C 21.621094 13.8125 22.433594 14.964844 22.527344 15.597656 C 22.683594 16.664062 21.316406 17.210938 21.316406 17.210938 L 17.78125 18.074219 L 16.324219 17.671875 L 15.6875 15.835938 L 17.035156 14.625 "/>
<path style=" stroke:none;fill-rule:nonzero;fill:rgb(0%,0%,0%);fill-opacity:1;" d="M 17.996094 15.257812 C 17.996094 15.257812 20.328125 14.425781 21.136719 14.394531 C 21.945312 14.359375 22.042969 15.015625 22.09375 15.582031 C 22.140625 16.152344 21.730469 16.847656 20.917969 17.144531 C 20.105469 17.4375 18.574219 17.554688 18.574219 17.554688 L 17.496094 17.042969 L 17.109375 15.980469 L 17.996094 15.257812 "/>
<path style=" stroke:none;fill-rule:nonzero;fill:rgb(100%,100%,100%);fill-opacity:1;" d="M 18.121094 17.808594 L 21.640625 16.726562 C 21.640625 16.726562 22.179688 16.515625 22.859375 16.691406 C 23.539062 16.867188 24.105469 18.46875 23.925781 19 C 23.742188 19.53125 23.21875 20.144531 22.402344 20.390625 C 21.589844 20.636719 18.871094 21.257812 18.871094 21.257812 L 17.660156 21.039062 L 16.742188 18.589844 L 18.121094 17.808594 "/>
<path style=" stroke:none;fill-rule:nonzero;fill:rgb(0%,0%,0%);fill-opacity:1;" d="M 19.085938 18.441406 C 19.503906 17.75 21.460938 17.671875 22.449219 17.507812 C 23.160156 17.390625 23.777344 18.304688 23.53125 19.03125 C 23.285156 19.757812 21.890625 20.109375 21.890625 20.109375 L 19.699219 20.664062 L 18.585938 20.226562 L 18.199219 19.164062 C 18.199219 19.164062 18.667969 19.128906 19.085938 18.441406 "/>
<g clip-path="url(#clip6)" clip-rule="nonzero">
<path style=" stroke:none;fill-rule:nonzero;fill:rgb(100%,100%,100%);fill-opacity:1;" d="M 0.421875 20.425781 L 0.421875 21.421875 L 6.753906 20.027344 L 6.957031 19.007812 L 0.421875 20.425781 "/>
</g>
<g clip-path="url(#clip7)" clip-rule="nonzero">
<path style=" stroke:none;fill-rule:nonzero;fill:rgb(100%,100%,100%);fill-opacity:1;" d="M 0.421875 31.652344 L 10.027344 28.519531 L 9.335938 27.746094 L 0.421875 30.621094 L 0.421875 31.652344 "/>
</g>
<path style=" stroke:none;fill-rule:nonzero;fill:rgb(100%,100%,100%);fill-opacity:1;" d="M 8.792969 27.230469 C 8.792969 27.230469 9.035156 28.378906 10.589844 28.71875 C 11.171875 28.84375 12.109375 28.523438 12.902344 28.554688 C 14.242188 28.613281 15.589844 29.238281 16.464844 28.925781 C 17.242188 28.648438 19.566406 27.546875 20.5625 27.210938 C 21.558594 26.878906 22.535156 26.503906 22.710938 26.230469 C 23.328125 25.28125 19.070312 26.476562 19.070312 26.476562 C 19.070312 26.476562 19.757812 26.816406 18.734375 27.160156 C 17.714844 27.507812 16.421875 28.492188 16.421875 28.492188 C 16.421875 28.492188 12.96875 28.242188 11.234375 28.152344 C 9.5 28.066406 8.792969 27.230469 8.792969 27.230469 "/>
<path style=" stroke:none;fill-rule:nonzero;fill:rgb(0%,0%,0%);fill-opacity:1;" d="M 18.378906 22.839844 C 19.183594 22.050781 18.683594 20.105469 18.875 19.070312 C 19.074219 18.023438 19.15625 16.757812 19.035156 15.6875 C 18.992188 15.320312 18.621094 14.804688 18.324219 14.582031 C 18 14.335938 17.40625 14.097656 17.015625 14.007812 C 15.976562 13.769531 14.839844 13.71875 13.808594 13.835938 C 13.210938 13.90625 12.617188 13.738281 12.023438 13.839844 C 11.523438 13.921875 10.65625 15.019531 10.222656 15.28125 C 9.335938 15.824219 9.386719 16.480469 8.714844 17.257812 C 8.082031 17.992188 7.136719 18.644531 6.863281 19.617188 C 6.726562 20.113281 6.789062 20.710938 6.816406 21.222656 C 6.851562 21.792969 7.308594 22.191406 7.476562 22.742188 C 7.710938 23.496094 10.171875 24.3125 10.765625 24.144531 C 11.332031 23.984375 12.847656 22.410156 13.339844 22.089844 C 13.664062 21.882812 14.046875 21.007812 14.265625 20.6875 C 14.472656 20.375 14.597656 20.015625 14.757812 19.675781 C 14.890625 19.398438 15.273438 18.773438 15.585938 19.242188 C 15.765625 19.503906 15.792969 19.878906 15.859375 20.179688 C 15.9375 20.527344 15.960938 20.902344 16.101562 21.230469 C 16.234375 21.535156 16.050781 22.261719 16.382812 22.34375 C 16.683594 22.417969 17.011719 22.878906 17.019531 22.914062 C 17.035156 22.960938 18.34375 22.875 18.378906 22.839844 "/>
<path style=" stroke:none;fill-rule:nonzero;fill:rgb(100%,100%,100%);fill-opacity:1;" d="M 6.847656 21.402344 C 6.847656 21.402344 6.390625 19.519531 6.882812 18.664062 C 7.136719 18.226562 8.316406 17.289062 9.242188 16.1875 C 10.125 15.136719 10.71875 13.8125 11.335938 13.542969 C 12.59375 12.996094 17.175781 13.828125 17.695312 13.902344 C 18.214844 13.980469 19.121094 14.964844 19.273438 15.5625 C 19.421875 16.15625 19.09375 22.484375 18.765625 23.042969 C 18.4375 23.605469 16.734375 23.058594 16.734375 23.058594 L 15.808594 21.816406 L 15.347656 19.535156 C 15.347656 19.535156 15.242188 20.535156 14.636719 21.359375 C 14.035156 22.183594 11.785156 23.21875 11.785156 23.21875 C 11.785156 23.21875 13.203125 22.351562 13.996094 21.359375 C 14.785156 20.363281 14.554688 19.414062 14.554688 19.414062 L 14.246094 17.839844 C 14.246094 17.839844 15.039062 18.773438 15.160156 18.667969 C 15.277344 18.558594 15.769531 17.480469 15.769531 17.480469 C 15.769531 17.480469 15.445312 18.21875 15.605469 18.953125 C 15.824219 19.976562 16.183594 21.445312 16.457031 21.859375 C 16.882812 22.511719 17.585938 22.945312 18.304688 22.304688 C 18.5 22.132812 18.570312 21.523438 18.636719 20.917969 C 18.644531 20.828125 18.210938 20.855469 17.949219 20.785156 C 17.820312 20.753906 17.640625 22.167969 17.644531 22.121094 C 17.644531 22.101562 17.660156 20.582031 17.777344 20.570312 C 18.058594 20.535156 18.726562 20.484375 18.730469 20.433594 C 18.824219 18.800781 18.710938 16.648438 18.847656 16.089844 C 19.058594 15.226562 18.335938 15.054688 17.375 14.375 C 16.414062 13.695312 12.648438 14.074219 11.582031 14.609375 C 10.957031 14.921875 10.210938 15.75 9.449219 16.539062 C 8.910156 17.097656 8.367188 17.667969 7.933594 18.210938 C 6.882812 19.523438 6.847656 21.402344 6.847656 21.402344 "/>
<path style=" stroke:none;fill-rule:nonzero;fill:rgb(0%,0%,0%);fill-opacity:1;" d="M 19.085938 24.226562 C 19.914062 23.984375 21.851562 24.191406 22.40625 24.417969 C 22.957031 24.644531 23.214844 25.414062 22.886719 25.886719 C 22.5625 26.359375 20.757812 26.390625 20.757812 26.390625 C 20.757812 26.390625 19.789062 26.246094 19.117188 26.242188 C 18.445312 26.238281 18.425781 26.167969 18.132812 25.914062 C 17.84375 25.660156 17.945312 25.191406 17.964844 24.734375 C 17.980469 24.277344 18.257812 24.46875 19.085938 24.226562 "/>
<path style=" stroke:none;fill-rule:nonzero;fill:rgb(100%,100%,100%);fill-opacity:1;" d="M 20.933594 14.125 L 21.070312 15.042969 L 20.625 14.226562 Z M 20.933594 14.125 "/>
<path style=" stroke:none;fill-rule:nonzero;fill:rgb(100%,100%,100%);fill-opacity:1;" d="M 18.867188 15.519531 L 17.445312 16.300781 L 18.683594 15.253906 Z M 18.867188 15.519531 "/>
<path style=" stroke:none;fill-rule:nonzero;fill:rgb(100%,100%,100%);fill-opacity:1;" d="M 19.140625 16.171875 L 17.957031 16.722656 L 18.96875 15.898438 Z M 19.140625 16.171875 "/>
<path style=" stroke:none;fill-rule:nonzero;fill:rgb(100%,100%,100%);fill-opacity:1;" d="M 21.496094 14.148438 L 21.765625 15.746094 L 21.183594 14.230469 Z M 21.496094 14.148438 "/>
<path style=" stroke:none;fill-rule:nonzero;fill:rgb(100%,100%,100%);fill-opacity:1;" d="M 22.289062 17.261719 L 22.429688 18.183594 L 21.984375 17.367188 Z M 22.289062 17.261719 "/>
<path style=" stroke:none;fill-rule:nonzero;fill:rgb(100%,100%,100%);fill-opacity:1;" d="M 22.851562 17.285156 L 23.121094 18.882812 L 22.542969 17.371094 Z M 22.851562 17.285156 "/>
<path style=" stroke:none;fill-rule:nonzero;fill:rgb(100%,100%,100%);fill-opacity:1;" d="M 22.636719 20.59375 L 22.777344 21.511719 L 22.332031 20.695312 Z M 22.636719 20.59375 "/>
<path style=" stroke:none;fill-rule:nonzero;fill:rgb(100%,100%,100%);fill-opacity:1;" d="M 23.203125 20.617188 L 23.46875 22.214844 L 22.890625 20.699219 Z M 23.203125 20.617188 "/>
<path style=" stroke:none;fill-rule:nonzero;fill:rgb(100%,100%,100%);fill-opacity:1;" d="M 21.851562 24.0625 L 21.988281 24.980469 L 21.546875 24.164062 Z M 21.851562 24.0625 "/>
<path style=" stroke:none;fill-rule:nonzero;fill:rgb(100%,100%,100%);fill-opacity:1;" d="M 22.417969 24.085938 L 22.683594 25.683594 L 22.105469 24.167969 Z M 22.417969 24.085938 "/>
</g>
</svg>
