<?xml version="1.0" encoding="UTF-8"?>
<svg xmlns="http://www.w3.org/2000/svg" xmlns:xlink="http://www.w3.org/1999/xlink" width="45pt" height="44.999999pt" viewBox="0 0 45 44.999999" version="1.2">
<defs>
<clipPath id="clip1">
  <path d="M 38 6.609375 L 45 6.609375 L 45 13 L 38 13 Z M 38 6.609375 "/>
</clipPath>
<clipPath id="clip2">
  <path d="M 8 26 L 15 26 L 15 38.109375 L 8 38.109375 Z M 8 26 "/>
</clipPath>
</defs>
<g id="surface1">
<path style=" stroke:none;fill-rule:nonzero;fill:rgb(100%,100%,100%);fill-opacity:1;" d="M 39.472656 17.414062 C 39.621094 17.414062 39.769531 17.375 39.902344 17.289062 L 44.542969 14.222656 C 44.898438 13.988281 44.992188 13.511719 44.757812 13.160156 C 44.519531 12.804688 44.039062 12.710938 43.683594 12.945312 L 39.042969 16.011719 C 38.6875 16.246094 38.59375 16.722656 38.828125 17.074219 C 38.976562 17.296875 39.222656 17.414062 39.472656 17.414062 "/>
<g clip-path="url(#clip1)" clip-rule="nonzero">
<path style=" stroke:none;fill-rule:nonzero;fill:rgb(100%,100%,100%);fill-opacity:1;" d="M 43.566406 6.910156 L 38.925781 11.507812 C 38.625 11.808594 38.625 12.292969 38.925781 12.59375 C 39.078125 12.742188 39.273438 12.816406 39.472656 12.816406 C 39.671875 12.816406 39.867188 12.742188 40.019531 12.59375 L 44.660156 7.996094 C 44.960938 7.695312 44.960938 7.210938 44.660156 6.910156 C 44.359375 6.609375 43.867188 6.609375 43.566406 6.910156 "/>
</g>
<path style=" stroke:none;fill-rule:nonzero;fill:rgb(100%,100%,100%);fill-opacity:1;" d="M 39.042969 24.953125 L 43.683594 28.015625 C 43.816406 28.105469 43.964844 28.144531 44.113281 28.144531 C 44.363281 28.144531 44.609375 28.027344 44.757812 27.804688 C 44.992188 27.453125 44.898438 26.976562 44.542969 26.742188 L 39.902344 23.675781 C 39.546875 23.441406 39.066406 23.535156 38.828125 23.886719 C 38.59375 24.242188 38.6875 24.71875 39.042969 24.953125 "/>
<path style=" stroke:none;fill-rule:nonzero;fill:rgb(100%,100%,100%);fill-opacity:1;" d="M 40.019531 28.371094 C 39.71875 28.070312 39.230469 28.070312 38.925781 28.371094 C 38.625 28.667969 38.625 29.15625 38.925781 29.453125 L 43.566406 34.050781 C 43.71875 34.203125 43.914062 34.277344 44.113281 34.277344 C 44.3125 34.277344 44.507812 34.203125 44.660156 34.050781 C 44.960938 33.753906 44.960938 33.269531 44.660156 32.96875 L 40.019531 28.371094 "/>
<path style=" stroke:none;fill-rule:nonzero;fill:rgb(100%,100%,100%);fill-opacity:1;" d="M 4.675781 24.3125 L 4.675781 16.648438 L 3.902344 16.648438 C 1.769531 16.648438 0.0351562 18.367188 0.0351562 20.480469 C 0.0351562 22.59375 1.769531 24.3125 3.902344 24.3125 L 4.675781 24.3125 "/>
<path style=" stroke:none;fill-rule:nonzero;fill:rgb(100%,100%,100%);fill-opacity:1;" d="M 7.769531 12.816406 L 7.769531 14.351562 L 9.316406 14.351562 L 9.316406 12.816406 L 7.769531 12.816406 "/>
<g clip-path="url(#clip2)" clip-rule="nonzero">
<path style=" stroke:none;fill-rule:nonzero;fill:rgb(100%,100%,100%);fill-opacity:1;" d="M 12.210938 38.109375 L 14.46875 38.109375 L 11.058594 26.613281 L 8.800781 26.613281 L 12.210938 38.109375 "/>
</g>
<path style=" stroke:none;fill-rule:nonzero;fill:rgb(100%,100%,100%);fill-opacity:1;" d="M 9.316406 20.480469 L 7.769531 20.480469 L 7.769531 17.414062 L 9.316406 17.414062 Z M 9.316406 23.546875 L 7.769531 23.546875 L 7.769531 22.015625 L 9.316406 22.015625 Z M 16.273438 15.882812 L 6.222656 15.882812 L 6.222656 25.082031 L 16.273438 25.082031 L 16.273438 15.882812 "/>
<path style=" stroke:none;fill-rule:nonzero;fill:rgb(100%,100%,100%);fill-opacity:1;" d="M 33.285156 29.679688 L 31.742188 29.679688 L 31.742188 11.285156 L 33.285156 11.285156 Z M 33.765625 9.046875 L 17.820312 15.628906 L 17.820312 25.335938 L 33.765625 31.917969 C 34.003906 32.015625 34.269531 31.992188 34.488281 31.847656 C 34.707031 31.707031 34.832031 31.472656 34.832031 31.210938 L 34.832031 9.75 C 34.832031 9.492188 34.707031 9.257812 34.488281 9.113281 C 34.269531 8.96875 34.003906 8.945312 33.765625 9.046875 "/>
</g>
</svg>
