<?xml version="1.0" encoding="UTF-8"?>
<svg xmlns="http://www.w3.org/2000/svg" xmlns:xlink="http://www.w3.org/1999/xlink" width="45pt" height="44.999999pt" viewBox="0 0 45 44.999999" version="1.2">
<defs>
<clipPath id="clip1">
  <path d="M 8 15 L 38.804688 15 L 38.804688 45 L 8 45 Z M 8 15 "/>
</clipPath>
<clipPath id="clip2">
  <path d="M 6.554688 0 L 28 0 L 28 27 L 6.554688 27 Z M 6.554688 0 "/>
</clipPath>
</defs>
<g id="surface1">
<g clip-path="url(#clip1)" clip-rule="nonzero">
<path style=" stroke:none;fill-rule:nonzero;fill:rgb(100%,100%,100%);fill-opacity:1;" d="M 25.621094 45 L 21.425781 45 C 19.5 45 17.570312 44.550781 15.847656 43.699219 C 12.359375 41.972656 9.855469 38.671875 9.160156 34.875 L 8.359375 30.546875 C 8.308594 30.234375 8.277344 29.925781 8.277344 29.617188 C 8.277344 27.195312 9.941406 25.121094 12.324219 24.566406 L 25.128906 21.585938 C 25.585938 21.484375 26.050781 21.71875 26.222656 22.152344 C 26.820312 23.628906 26.789062 25.242188 26.132812 26.695312 C 25.472656 28.148438 24.277344 29.25 22.765625 29.792969 L 18.679688 31.261719 C 18.488281 31.332031 18.40625 31.472656 18.378906 31.554688 C 18.34375 31.632812 18.304688 31.792969 18.394531 31.96875 L 19.558594 34.265625 C 19.789062 34.730469 19.601562 35.292969 19.132812 35.527344 C 18.660156 35.753906 18.09375 35.570312 17.859375 35.105469 L 16.699219 32.808594 C 16.390625 32.203125 16.359375 31.492188 16.613281 30.859375 C 16.871094 30.230469 17.386719 29.734375 18.03125 29.5 L 22.117188 28.03125 C 23.144531 27.660156 23.957031 26.914062 24.398438 25.929688 C 24.734375 25.191406 24.832031 24.390625 24.6875 23.613281 L 12.757812 26.390625 C 11.234375 26.742188 10.171875 28.070312 10.171875 29.613281 C 10.171875 29.8125 10.191406 30.015625 10.226562 30.210938 L 11.023438 34.539062 C 11.617188 37.757812 13.738281 40.554688 16.695312 42.019531 C 18.160156 42.742188 19.792969 43.125 21.429688 43.125 L 25.621094 43.125 C 31.746094 43.125 36.722656 38.203125 36.722656 32.148438 L 36.722656 28.558594 C 36.164062 28.878906 35.515625 29.0625 34.828125 29.0625 C 32.734375 29.0625 31.035156 27.378906 31.035156 25.3125 L 31.035156 18.75 C 31.035156 16.683594 32.734375 15 34.828125 15 C 36.917969 15 38.617188 16.683594 38.617188 18.75 L 38.617188 32.148438 C 38.617188 39.234375 32.789062 45 25.621094 45 Z M 34.828125 16.875 C 33.78125 16.875 32.929688 17.71875 32.929688 18.75 L 32.929688 25.3125 C 32.929688 26.34375 33.78125 27.1875 34.828125 27.1875 C 35.871094 27.1875 36.722656 26.34375 36.722656 25.3125 L 36.722656 18.75 C 36.722656 17.71875 35.871094 16.875 34.828125 16.875 Z M 34.828125 16.875 "/>
</g>
<path style=" stroke:none;fill-rule:nonzero;fill:rgb(100%,100%,100%);fill-opacity:1;" d="M 29.136719 28.125 C 27.046875 28.125 25.34375 26.441406 25.34375 24.375 L 25.34375 15 C 25.34375 12.933594 27.046875 11.25 29.136719 11.25 C 31.230469 11.25 32.929688 12.933594 32.929688 15 L 32.929688 18.75 C 32.929688 19.265625 32.503906 19.6875 31.980469 19.6875 C 32.503906 19.6875 32.929688 20.109375 32.929688 20.625 L 32.929688 24.375 C 32.929688 26.441406 31.226562 28.125 29.136719 28.125 Z M 29.136719 13.125 C 28.089844 13.125 27.242188 13.96875 27.242188 15 L 27.242188 24.375 C 27.242188 25.40625 28.089844 26.25 29.136719 26.25 C 30.183594 26.25 31.035156 25.40625 31.035156 24.375 L 31.035156 20.625 C 31.035156 20.109375 31.457031 19.6875 31.980469 19.6875 C 31.457031 19.6875 31.035156 19.265625 31.035156 18.75 L 31.035156 15 C 31.035156 13.96875 30.183594 13.125 29.136719 13.125 Z M 29.136719 13.125 "/>
<g clip-path="url(#clip2)" clip-rule="nonzero">
<path style=" stroke:none;fill-rule:nonzero;fill:rgb(100%,100%,100%);fill-opacity:1;" d="M 13.019531 26.25 C 12.613281 26.25 12.242188 25.996094 12.113281 25.59375 L 7.105469 9.917969 C 6.574219 8.246094 7.261719 6.445312 8.785156 5.542969 C 9.722656 4.984375 10.867188 4.855469 11.910156 5.183594 C 12.957031 5.515625 13.808594 6.277344 14.246094 7.265625 L 18.859375 17.496094 L 19.386719 3.5625 C 19.59375 1.503906 21.273438 0 23.304688 0 C 25.476562 0 27.242188 1.746094 27.242188 3.890625 L 27.242188 15 C 27.242188 15.515625 26.816406 15.9375 26.292969 15.9375 C 25.769531 15.9375 25.34375 15.515625 25.34375 15 L 25.34375 3.890625 C 25.34375 2.777344 24.429688 1.875 23.304688 1.875 C 22.253906 1.875 21.382812 2.65625 21.277344 3.6875 L 20.691406 19.269531 C 20.664062 19.960938 20.171875 20.535156 19.484375 20.667969 C 18.789062 20.792969 18.117188 20.453125 17.832031 19.820312 L 12.511719 8.023438 C 12.289062 7.519531 11.859375 7.136719 11.332031 6.972656 C 10.808594 6.804688 10.230469 6.871094 9.757812 7.152344 C 8.992188 7.605469 8.644531 8.511719 8.914062 9.355469 L 13.921875 25.03125 C 14.078125 25.523438 13.804688 26.050781 13.304688 26.207031 C 13.210938 26.238281 13.113281 26.25 13.019531 26.25 Z M 13.019531 26.25 "/>
</g>
</g>
</svg>
